<?xml version="1.0" standalone="no"?>
<!DOCTYPE svg PUBLIC "-//W3C//DTD SVG 20010904//EN"
 "http://www.w3.org/TR/2001/REC-SVG-20010904/DTD/svg10.dtd">
<svg version="1.0" xmlns="http://www.w3.org/2000/svg"
 width="900.000000pt" height="252.000000pt" viewBox="0 0 900.000000 252.000000"
 preserveAspectRatio="xMidYMid meet">
<metadata>
Created by potrace 1.10, written by Peter Selinger 2001-2011
</metadata>
<g transform="translate(0.000000,252.000000) scale(0.100000,-0.100000)"
fill="#1e1f26" stroke="none">
<path d="M0 1260 l0 -1260 4500 0 4500 0 0 1260 0 1260 -4500 0 -4500 0 0
-1260z m5139 1049 c196 -19 295 -53 375 -132 75 -73 94 -133 77 -237 -37 -223
-183 -347 -506 -433 -113 -30 -190 -46 -290 -61 -55 -8 -147 -22 -205 -31 -58
-9 -109 -20 -114 -25 -11 -11 20 -27 123 -61 47 -15 111 -38 141 -49 30 -12
66 -25 80 -30 14 -4 36 -12 50 -18 14 -5 45 -18 70 -27 25 -10 54 -21 65 -26
11 -4 49 -20 85 -35 137 -55 196 -99 225 -166 19 -46 21 -208 3 -226 -24 -24
-73 -10 -246 74 -360 175 -438 212 -663 318 -31 14 -62 26 -70 26 -15 -1 -148
-199 -192 -285 -28 -56 -63 -95 -114 -126 -28 -17 -36 -19 -49 -8 -46 38 -31
96 74 276 23 41 42 75 42 78 0 2 18 31 40 64 22 33 40 65 40 70 0 6 -18 22
-40 36 -46 29 -52 59 -21 109 39 62 164 136 230 136 32 0 46 15 121 124 25 37
59 85 76 109 82 112 144 208 144 223 0 12 -6 15 -22 10 -13 -3 -41 -8 -63 -11
-47 -7 -133 -28 -228 -57 -74 -23 -74 -38 0 -38 54 0 62 -15 21 -37 -27 -14
-63 -18 -191 -21 -142 -3 -161 -2 -179 14 -28 26 -18 77 34 182 66 135 118
167 373 232 99 25 202 42 330 54 172 17 236 18 374 5z m3682 -9 c15 -9 19 -22
19 -64 0 -127 -93 -295 -326 -586 -51 -63 -107 -131 -126 -150 -19 -19 -96
-99 -171 -176 l-137 -142 0 -83 c0 -157 51 -189 154 -98 l47 41 -7 74 c-6 61
-3 82 12 117 51 118 200 257 274 257 24 0 33 -6 40 -26 20 -50 -4 -164 -56
-267 -31 -63 -31 -85 1 -93 29 -7 113 30 169 75 47 38 54 38 62 5 10 -38 -10
-66 -84 -120 -87 -64 -133 -84 -213 -93 -66 -7 -67 -7 -152 -87 -147 -137
-265 -178 -337 -118 -41 35 -76 106 -85 172 -4 32 -13 56 -21 59 -9 3 -41 -20
-82 -60 -122 -121 -202 -167 -288 -167 -91 0 -166 77 -181 186 -3 25 -12 48
-19 51 -8 3 -49 -26 -92 -63 -43 -38 -97 -84 -120 -102 -40 -33 -66 -56 -128
-112 -17 -16 -51 -62 -74 -102 -137 -230 -332 -440 -432 -463 -19 -5 -32 -1
-48 15 -19 19 -21 29 -15 66 12 84 57 160 177 299 42 50 99 110 127 133 126
108 137 123 226 314 27 58 9 65 -38 15 -48 -52 -148 -130 -226 -178 -43 -26
-65 -33 -104 -33 -46 0 -53 4 -82 37 -31 36 -75 136 -75 170 0 36 -23 21 -131
-86 -84 -83 -131 -121 -178 -145 -74 -37 -81 -38 -127 -16 -69 33 -90 108 -58
213 27 94 13 93 -89 -6 -113 -110 -196 -167 -241 -167 -42 0 -84 44 -132 139
-33 63 -36 79 -38 155 -1 81 1 88 36 145 72 118 220 245 380 326 128 65 270
111 346 113 49 1 56 -2 83 -32 39 -44 39 -83 -2 -115 l-32 -25 23 -55 23 -56
-25 -48 c-13 -26 -42 -75 -64 -108 -95 -146 -100 -225 -14 -225 32 0 128 54
179 100 25 22 48 40 53 40 4 0 8 -16 8 -35 0 -40 14 -45 41 -13 23 25 25 81 4
98 -21 18 -20 24 24 88 56 81 160 167 323 267 138 84 254 107 324 64 22 -13
34 -28 34 -43 0 -38 -133 -149 -215 -180 -11 -4 -71 -37 -133 -73 -169 -97
-252 -189 -252 -275 0 -136 186 -28 416 242 21 25 72 80 113 123 57 58 82 77
102 77 60 0 77 -100 35 -206 -13 -32 -51 -117 -85 -188 -34 -70 -60 -131 -57
-134 3 -3 57 34 121 82 109 83 143 98 130 55 -11 -33 21 -34 49 -2 42 47 29
117 -14 78 -18 -17 -20 -17 -26 -1 -4 10 -2 27 4 39 7 12 16 34 21 48 32 87
193 269 274 308 82 40 157 18 157 -46 0 -63 -81 -182 -208 -306 -75 -73 -89
-106 -71 -169 10 -37 52 -68 91 -68 37 1 107 37 186 96 77 58 102 63 102 19 0
-58 61 -2 64 59 1 29 -1 31 -32 28 l-33 -3 6 48 c36 247 288 623 601 894 92
80 108 93 169 135 84 57 107 64 146 44z m-7790 -63 c40 -18 89 -81 105 -134
18 -59 12 -76 -68 -193 -52 -76 -68 -110 -53 -110 6 0 173 87 315 163 154 83
363 186 389 192 16 3 34 0 46 -9 20 -15 20 -16 -8 -70 -36 -70 -130 -166 -161
-166 -40 0 -189 -70 -561 -265 -220 -115 -220 -115 -260 -175 l-37 -55 33 -27
c17 -15 44 -33 58 -40 32 -16 117 -71 236 -151 346 -232 485 -392 445 -511
-24 -74 -48 -64 -390 163 -129 86 -242 159 -250 163 -8 4 -71 44 -138 88 -68
44 -132 80 -141 80 -10 0 -23 -10 -30 -22 -75 -141 -245 -357 -318 -405 -28
-19 -93 -19 -104 -2 -24 37 23 117 225 388 58 79 106 149 106 156 0 7 -5 26
-11 44 -29 83 55 198 202 275 41 21 87 50 102 65 24 22 101 132 170 243 19 30
23 68 7 68 -17 0 -115 -29 -170 -50 -30 -12 -67 -25 -81 -30 -14 -4 -34 -12
-45 -18 -10 -6 -57 -28 -104 -50 -47 -22 -156 -74 -243 -117 -87 -42 -175 -79
-196 -82 -36 -5 -41 -3 -55 24 -22 44 -4 151 43 244 40 81 99 137 205 194 58
31 65 30 79 -10 3 -6 16 -5 38 3 19 7 61 23 94 34 33 11 76 26 95 33 186 67
374 98 431 72z m2846 -335 c58 -37 14 -177 -74 -237 -45 -30 -82 -32 -114 -6
-34 27 -32 96 5 151 50 75 139 120 183 92z m4100 -14 c27 -25 28 -39 8 -99
-27 -78 -112 -153 -167 -147 -80 8 -88 111 -15 194 64 73 131 93 174 52z
m-5644 -234 c25 -19 47 -58 47 -83 0 -9 -14 -27 -30 -40 -36 -28 -37 -38 -9
-97 l20 -45 -24 -42 c-13 -23 -47 -78 -75 -122 -28 -44 -57 -101 -64 -127 -11
-42 -10 -49 7 -68 22 -25 66 -26 108 -2 42 23 129 85 163 117 40 37 64 33 64
-10 0 -37 -11 -50 -171 -215 -68 -70 -153 -136 -206 -160 -40 -18 -54 -20 -84
-11 -42 13 -72 43 -87 89 -11 31 -7 58 24 197 6 28 3 27 -57 -30 -35 -33 -82
-77 -104 -98 -68 -63 -143 -109 -182 -110 -31 -1 -42 6 -77 46 -49 56 -98 170
-104 244 -7 80 38 163 148 274 125 125 265 209 465 277 136 47 183 50 228 16z
m1358 -74 c14 -8 19 -21 19 -51 0 -65 -50 -146 -162 -261 -120 -125 -128 -135
-128 -169 0 -65 45 -119 100 -119 50 0 189 86 288 179 45 42 72 41 72 -2 0
-46 -38 -96 -175 -230 -115 -113 -195 -157 -283 -157 -85 0 -143 57 -176 173
-9 31 -19 57 -23 57 -3 0 -37 -29 -75 -65 -38 -36 -102 -90 -143 -121 -80 -58
-89 -69 -100 -124 -10 -49 -67 -161 -120 -234 -110 -154 -293 -296 -382 -296
-76 0 -104 138 -51 248 34 68 94 138 183 215 96 82 112 94 167 129 52 32 63
53 53 99 -6 26 -18 36 -81 65 -41 20 -79 44 -85 55 -16 30 15 65 153 169 155
118 198 153 198 163 0 12 -59 8 -129 -9 -36 -8 -76 -17 -88 -20 -12 -2 -48
-33 -79 -69 -32 -36 -61 -65 -65 -65 -3 0 -12 14 -19 31 -11 27 -11 33 9 59
26 36 26 42 1 65 -42 38 -18 115 62 193 57 55 118 92 155 92 27 0 47 -33 37
-62 -6 -20 -4 -20 37 -15 45 6 167 32 200 42 11 4 29 -5 50 -23 26 -23 32 -38
37 -80 2 -28 2 -62 -2 -75 -8 -35 -68 -91 -200 -187 -63 -47 -116 -90 -116
-96 0 -5 15 -25 34 -43 18 -18 39 -50 47 -73 7 -22 19 -42 26 -45 12 -5 187
122 247 179 41 39 54 36 58 -14 l3 -41 38 36 c26 26 37 45 37 66 0 33 -16 49
-33 32 -29 -29 -37 13 -13 71 41 98 199 277 278 317 46 23 107 27 139 11z"/>
<path d="M4908 2010 c-78 -10 -88 -14 -88 -41 0 -34 -75 -174 -158 -295 -29
-42 -51 -83 -48 -89 5 -14 43 -9 171 25 44 12 94 25 110 29 17 5 71 22 120 39
325 110 493 235 399 297 -58 38 -322 56 -506 35z"/>
<path d="M8551 1988 c-150 -174 -260 -324 -329 -451 -41 -74 -42 -100 -4 -61
140 144 335 397 411 536 62 114 35 105 -78 -24z"/>
<path d="M5920 1367 c-240 -122 -297 -167 -328 -256 -17 -49 -15 -85 7 -105
16 -14 23 -15 47 -4 72 31 211 157 370 334 104 116 85 122 -96 31z"/>
<path d="M2100 1415 c-14 -8 -72 -37 -129 -65 -175 -86 -244 -138 -282 -212
-20 -39 -25 -113 -10 -137 21 -34 109 21 251 156 103 98 230 243 230 262 0 15
-30 13 -60 -4z"/>
<path d="M2635 549 c-57 -43 -175 -171 -175 -190 0 -29 38 -10 104 52 53 49
125 153 114 164 -2 2 -21 -10 -43 -26z"/>
</g>
</svg>
